<?xml version="1.0" encoding="UTF-8" standalone="no"?>
<!DOCTYPE svg PUBLIC "-//W3C//DTD SVG 1.1//EN"
 "http://www.w3.org/Graphics/SVG/1.1/DTD/svg11.dtd">
<!-- Generated by graphviz version 2.47.0 (20210316.0004)
 -->
<!-- Title: dbml Pages: 1 -->
<svg width="1924pt" height="3572pt"
 viewBox="0.00 0.00 1924.13 3572.35" xmlns="http://www.w3.org/2000/svg" xmlns:xlink="http://www.w3.org/1999/xlink">
<g id="graph0" class="graph" transform="scale(1 1) rotate(0) translate(4 3568.35)">
<title>dbml</title>
<!-- CustomerFeedback -->
<g id="CustomerFeedback" class="node">
<title>CustomerFeedback</title>
<ellipse fill="none" stroke="black" stroke-width="0" cx="1037.26" cy="-2453.39" rx="315.24" ry="214.92"/>
<polygon fill="#1d71b8" stroke="transparent" points="816.26,-2543.39 816.26,-2603.39 1258.26,-2603.39 1258.26,-2543.39 816.26,-2543.39"/>
<polygon fill="none" stroke="#29235c" points="816.26,-2543.39 816.26,-2603.39 1258.26,-2603.39 1258.26,-2543.39 816.26,-2543.39"/>
<text text-anchor="start" x="835.43" y="-2564.59" font-family="Helvetica,sans-Serif" font-weight="bold" font-size="32.00" fill="#ffffff"> &#160;&#160;&#160;&#160;&#160;&#160;CustomerFeedback &#160;&#160;&#160;&#160;&#160;&#160;</text>
<polygon fill="#e7e2dd" stroke="transparent" points="816.26,-2483.39 816.26,-2543.39 1258.26,-2543.39 1258.26,-2483.39 816.26,-2483.39"/>
<polygon fill="none" stroke="#29235c" points="816.26,-2483.39 816.26,-2543.39 1258.26,-2543.39 1258.26,-2483.39 816.26,-2483.39"/>
<text text-anchor="start" x="827.26" y="-2504.59" font-family="Helvetica,sans-Serif" font-weight="bold" font-size="32.00" fill="#29235c">id</text>
<text text-anchor="start" x="852.15" y="-2504.59" font-family="Helvetica,sans-Serif" font-size="32.00" fill="#29235c"> &#160;&#160;&#160;</text>
<text text-anchor="start" x="1105.05" y="-2504.59" font-family="Helvetica,sans-Serif" font-style="italic" font-size="32.00" fill="#29235c">INTEGER</text>
<polygon fill="#e7e2dd" stroke="transparent" points="816.26,-2423.39 816.26,-2483.39 1258.26,-2483.39 1258.26,-2423.39 816.26,-2423.39"/>
<polygon fill="none" stroke="#29235c" points="816.26,-2423.39 816.26,-2483.39 1258.26,-2483.39 1258.26,-2423.39 816.26,-2423.39"/>
<text text-anchor="start" x="827.26" y="-2443.59" font-family="Helvetica,sans-Serif" font-size="32.00" fill="#29235c">resort_id &#160;&#160;&#160;</text>
<text text-anchor="start" x="1105.05" y="-2444.59" font-family="Helvetica,sans-Serif" font-style="italic" font-size="32.00" fill="#29235c">INTEGER</text>
<polygon fill="#e7e2dd" stroke="transparent" points="816.26,-2363.39 816.26,-2423.39 1258.26,-2423.39 1258.26,-2363.39 816.26,-2363.39"/>
<polygon fill="none" stroke="#29235c" points="816.26,-2363.39 816.26,-2423.39 1258.26,-2423.39 1258.26,-2363.39 816.26,-2363.39"/>
<text text-anchor="start" x="827.26" y="-2383.59" font-family="Helvetica,sans-Serif" font-size="32.00" fill="#29235c">feedback &#160;&#160;&#160;</text>
<text text-anchor="start" x="1090.84" y="-2384.59" font-family="Helvetica,sans-Serif" font-style="italic" font-size="32.00" fill="#29235c">VARCHAR</text>
<polygon fill="#e7e2dd" stroke="transparent" points="816.26,-2303.39 816.26,-2363.39 1258.26,-2363.39 1258.26,-2303.39 816.26,-2303.39"/>
<polygon fill="none" stroke="#29235c" points="816.26,-2303.39 816.26,-2363.39 1258.26,-2363.39 1258.26,-2303.39 816.26,-2303.39"/>
<text text-anchor="start" x="826.79" y="-2323.59" font-family="Helvetica,sans-Serif" font-size="32.00" fill="#29235c">customer_name &#160;&#160;&#160;</text>
<text text-anchor="start" x="1091.05" y="-2324.59" font-family="Helvetica,sans-Serif" font-style="italic" font-size="32.00" fill="#29235c">VARCHAR</text>
<polygon fill="none" stroke="#29235c" stroke-width="2" points="815.26,-2302.39 815.26,-2604.39 1259.26,-2604.39 1259.26,-2302.39 815.26,-2302.39"/>
</g>
<!-- SkiResort -->
<g id="SkiResort" class="node">
<title>SkiResort</title>
<ellipse fill="none" stroke="black" stroke-width="0" cx="1652.38" cy="-1322.39" rx="263.5" ry="214.92"/>
<polygon fill="#1d71b8" stroke="transparent" points="1468.38,-1412.39 1468.38,-1472.39 1837.38,-1472.39 1837.38,-1412.39 1468.38,-1412.39"/>
<polygon fill="none" stroke="#29235c" points="1468.38,-1412.39 1468.38,-1472.39 1837.38,-1472.39 1837.38,-1412.39 1468.38,-1412.39"/>
<text text-anchor="start" x="1521.3" y="-1433.59" font-family="Helvetica,sans-Serif" font-weight="bold" font-size="32.00" fill="#ffffff"> &#160;&#160;&#160;&#160;&#160;&#160;SkiResort &#160;&#160;&#160;&#160;&#160;&#160;</text>
<polygon fill="#e7e2dd" stroke="transparent" points="1468.38,-1352.39 1468.38,-1412.39 1837.38,-1412.39 1837.38,-1352.39 1468.38,-1352.39"/>
<polygon fill="none" stroke="#29235c" points="1468.38,-1352.39 1468.38,-1412.39 1837.38,-1412.39 1837.38,-1352.39 1468.38,-1352.39"/>
<text text-anchor="start" x="1479.38" y="-1373.59" font-family="Helvetica,sans-Serif" font-weight="bold" font-size="32.00" fill="#29235c">id</text>
<text text-anchor="start" x="1504.27" y="-1373.59" font-family="Helvetica,sans-Serif" font-size="32.00" fill="#29235c"> &#160;&#160;&#160;</text>
<text text-anchor="start" x="1684.17" y="-1373.59" font-family="Helvetica,sans-Serif" font-style="italic" font-size="32.00" fill="#29235c">INTEGER</text>
<polygon fill="#e7e2dd" stroke="transparent" points="1468.38,-1292.39 1468.38,-1352.39 1837.38,-1352.39 1837.38,-1292.39 1468.38,-1292.39"/>
<polygon fill="none" stroke="#29235c" points="1468.38,-1292.39 1468.38,-1352.39 1837.38,-1352.39 1837.38,-1292.39 1468.38,-1292.39"/>
<text text-anchor="start" x="1479.38" y="-1312.59" font-family="Helvetica,sans-Serif" font-size="32.00" fill="#29235c">name &#160;&#160;&#160;</text>
<text text-anchor="start" x="1669.96" y="-1313.59" font-family="Helvetica,sans-Serif" font-style="italic" font-size="32.00" fill="#29235c">VARCHAR</text>
<polygon fill="#e7e2dd" stroke="transparent" points="1468.38,-1232.39 1468.38,-1292.39 1837.38,-1292.39 1837.38,-1232.39 1468.38,-1232.39"/>
<polygon fill="none" stroke="#29235c" points="1468.38,-1232.39 1468.38,-1292.39 1837.38,-1292.39 1837.38,-1232.39 1468.38,-1232.39"/>
<text text-anchor="start" x="1479.38" y="-1252.59" font-family="Helvetica,sans-Serif" font-size="32.00" fill="#29235c">location &#160;&#160;&#160;</text>
<text text-anchor="start" x="1669.96" y="-1253.59" font-family="Helvetica,sans-Serif" font-style="italic" font-size="32.00" fill="#29235c">VARCHAR</text>
<polygon fill="#e7e2dd" stroke="transparent" points="1468.38,-1172.39 1468.38,-1232.39 1837.38,-1232.39 1837.38,-1172.39 1468.38,-1172.39"/>
<polygon fill="none" stroke="#29235c" points="1468.38,-1172.39 1468.38,-1232.39 1837.38,-1232.39 1837.38,-1172.39 1468.38,-1172.39"/>
<text text-anchor="start" x="1478.96" y="-1192.59" font-family="Helvetica,sans-Serif" font-size="32.00" fill="#29235c">operational &#160;&#160;&#160;</text>
<text text-anchor="start" x="1672.03" y="-1193.59" font-family="Helvetica,sans-Serif" font-style="italic" font-size="32.00" fill="#29235c">BOOLEAN</text>
<polygon fill="none" stroke="#29235c" stroke-width="2" points="1466.88,-1171.39 1466.88,-1473.39 1837.88,-1473.39 1837.88,-1171.39 1466.88,-1171.39"/>
</g>
<!-- CustomerFeedback&#45;&gt;SkiResort -->
<!-- CustomerFeedback&#45;&gt;SkiResort -->
<g id="edge2" class="edge">
<title>CustomerFeedback:e&#45;&gt;SkiResort:w</title>
<path fill="none" stroke="#29235c" stroke-width="3" d="M1259.26,-2453.39C1498.28,-2453.39 1232.67,-1412.5 1457.39,-1383.03"/>
<polygon fill="#29235c" stroke="#29235c" stroke-width="3" points="1457.63,-1386.52 1467.38,-1382.39 1457.18,-1379.53 1457.63,-1386.52"/>
<text text-anchor="middle" x="1473.61" y="-1353.59" font-family="Helvetica,sans-Serif" font-size="32.00" fill="#29235c">*</text>
<text text-anchor="middle" x="1268.16" y="-2424.59" font-family="Helvetica,sans-Serif" font-size="32.00" fill="#29235c">1</text>
</g>
<!-- EquipmentRental -->
<g id="EquipmentRental" class="node">
<title>EquipmentRental</title>
<ellipse fill="none" stroke="black" stroke-width="0" cx="342.95" cy="-2453.39" rx="315.24" ry="214.92"/>
<polygon fill="#1d71b8" stroke="transparent" points="121.95,-2543.39 121.95,-2603.39 563.95,-2603.39 563.95,-2543.39 121.95,-2543.39"/>
<polygon fill="none" stroke="#29235c" points="121.95,-2543.39 121.95,-2603.39 563.95,-2603.39 563.95,-2543.39 121.95,-2543.39"/>
<text text-anchor="start" x="158" y="-2564.59" font-family="Helvetica,sans-Serif" font-weight="bold" font-size="32.00" fill="#ffffff"> &#160;&#160;&#160;&#160;&#160;&#160;EquipmentRental &#160;&#160;&#160;&#160;&#160;&#160;</text>
<polygon fill="#e7e2dd" stroke="transparent" points="121.95,-2483.39 121.95,-2543.39 563.95,-2543.39 563.95,-2483.39 121.95,-2483.39"/>
<polygon fill="none" stroke="#29235c" points="121.95,-2483.39 121.95,-2543.39 563.95,-2543.39 563.95,-2483.39 121.95,-2483.39"/>
<text text-anchor="start" x="132.95" y="-2504.59" font-family="Helvetica,sans-Serif" font-weight="bold" font-size="32.00" fill="#29235c">id</text>
<text text-anchor="start" x="157.84" y="-2504.59" font-family="Helvetica,sans-Serif" font-size="32.00" fill="#29235c"> &#160;&#160;&#160;</text>
<text text-anchor="start" x="410.73" y="-2504.59" font-family="Helvetica,sans-Serif" font-style="italic" font-size="32.00" fill="#29235c">INTEGER</text>
<polygon fill="#e7e2dd" stroke="transparent" points="121.95,-2423.39 121.95,-2483.39 563.95,-2483.39 563.95,-2423.39 121.95,-2423.39"/>
<polygon fill="none" stroke="#29235c" points="121.95,-2423.39 121.95,-2483.39 563.95,-2483.39 563.95,-2423.39 121.95,-2423.39"/>
<text text-anchor="start" x="132.47" y="-2443.59" font-family="Helvetica,sans-Serif" font-size="32.00" fill="#29235c">customer_name &#160;&#160;&#160;</text>
<text text-anchor="start" x="396.73" y="-2444.59" font-family="Helvetica,sans-Serif" font-style="italic" font-size="32.00" fill="#29235c">VARCHAR</text>
<polygon fill="#e7e2dd" stroke="transparent" points="121.95,-2363.39 121.95,-2423.39 563.95,-2423.39 563.95,-2363.39 121.95,-2363.39"/>
<polygon fill="none" stroke="#29235c" points="121.95,-2363.39 121.95,-2423.39 563.95,-2423.39 563.95,-2363.39 121.95,-2363.39"/>
<text text-anchor="start" x="132.95" y="-2383.59" font-family="Helvetica,sans-Serif" font-size="32.00" fill="#29235c">rental_date &#160;&#160;&#160;</text>
<text text-anchor="start" x="391.18" y="-2384.59" font-family="Helvetica,sans-Serif" font-style="italic" font-size="32.00" fill="#29235c">DATETIME</text>
<polygon fill="#e7e2dd" stroke="transparent" points="121.95,-2303.39 121.95,-2363.39 563.95,-2363.39 563.95,-2303.39 121.95,-2303.39"/>
<polygon fill="none" stroke="#29235c" points="121.95,-2303.39 121.95,-2363.39 563.95,-2363.39 563.95,-2303.39 121.95,-2303.39"/>
<text text-anchor="start" x="132.95" y="-2323.59" font-family="Helvetica,sans-Serif" font-size="32.00" fill="#29235c">return_date &#160;&#160;&#160;</text>
<text text-anchor="start" x="391.18" y="-2324.59" font-family="Helvetica,sans-Serif" font-style="italic" font-size="32.00" fill="#29235c">DATETIME</text>
<polygon fill="none" stroke="#29235c" stroke-width="2" points="120.95,-2302.39 120.95,-2604.39 564.95,-2604.39 564.95,-2302.39 120.95,-2302.39"/>
</g>
<!-- Lift -->
<g id="Lift" class="node">
<title>Lift</title>
<ellipse fill="none" stroke="black" stroke-width="0" cx="1037.26" cy="-2005.39" rx="231.86" ry="214.92"/>
<polygon fill="#1d71b8" stroke="transparent" points="875.26,-2095.39 875.26,-2155.39 1199.26,-2155.39 1199.26,-2095.39 875.26,-2095.39"/>
<polygon fill="none" stroke="#29235c" points="875.26,-2095.39 875.26,-2155.39 1199.26,-2155.39 1199.26,-2095.39 875.26,-2095.39"/>
<text text-anchor="start" x="953.68" y="-2116.59" font-family="Helvetica,sans-Serif" font-weight="bold" font-size="32.00" fill="#ffffff"> &#160;&#160;&#160;&#160;&#160;&#160;Lift &#160;&#160;&#160;&#160;&#160;&#160;</text>
<polygon fill="#e7e2dd" stroke="transparent" points="875.26,-2035.39 875.26,-2095.39 1199.26,-2095.39 1199.26,-2035.39 875.26,-2035.39"/>
<polygon fill="none" stroke="#29235c" points="875.26,-2035.39 875.26,-2095.39 1199.26,-2095.39 1199.26,-2035.39 875.26,-2035.39"/>
<text text-anchor="start" x="886.26" y="-2056.59" font-family="Helvetica,sans-Serif" font-weight="bold" font-size="32.00" fill="#29235c">id</text>
<text text-anchor="start" x="911.15" y="-2056.59" font-family="Helvetica,sans-Serif" font-size="32.00" fill="#29235c"> &#160;&#160;&#160;</text>
<text text-anchor="start" x="1046.05" y="-2056.59" font-family="Helvetica,sans-Serif" font-style="italic" font-size="32.00" fill="#29235c">INTEGER</text>
<polygon fill="#e7e2dd" stroke="transparent" points="875.26,-1975.39 875.26,-2035.39 1199.26,-2035.39 1199.26,-1975.39 875.26,-1975.39"/>
<polygon fill="none" stroke="#29235c" points="875.26,-1975.39 875.26,-2035.39 1199.26,-2035.39 1199.26,-1975.39 875.26,-1975.39"/>
<text text-anchor="start" x="886.26" y="-1995.59" font-family="Helvetica,sans-Serif" font-size="32.00" fill="#29235c">name &#160;&#160;&#160;</text>
<text text-anchor="start" x="1031.84" y="-1996.59" font-family="Helvetica,sans-Serif" font-style="italic" font-size="32.00" fill="#29235c">VARCHAR</text>
<polygon fill="#e7e2dd" stroke="transparent" points="875.26,-1915.39 875.26,-1975.39 1199.26,-1975.39 1199.26,-1915.39 875.26,-1915.39"/>
<polygon fill="none" stroke="#29235c" points="875.26,-1915.39 875.26,-1975.39 1199.26,-1975.39 1199.26,-1915.39 875.26,-1915.39"/>
<text text-anchor="start" x="886.26" y="-1935.59" font-family="Helvetica,sans-Serif" font-size="32.00" fill="#29235c">capacity &#160;&#160;&#160;</text>
<text text-anchor="start" x="1046.05" y="-1936.59" font-family="Helvetica,sans-Serif" font-style="italic" font-size="32.00" fill="#29235c">INTEGER</text>
<polygon fill="#e7e2dd" stroke="transparent" points="875.26,-1855.39 875.26,-1915.39 1199.26,-1915.39 1199.26,-1855.39 875.26,-1855.39"/>
<polygon fill="none" stroke="#29235c" points="875.26,-1855.39 875.26,-1915.39 1199.26,-1915.39 1199.26,-1855.39 875.26,-1855.39"/>
<text text-anchor="start" x="886.25" y="-1875.59" font-family="Helvetica,sans-Serif" font-size="32.00" fill="#29235c">resort_id &#160;&#160;&#160;</text>
<text text-anchor="start" x="1046.15" y="-1876.59" font-family="Helvetica,sans-Serif" font-style="italic" font-size="32.00" fill="#29235c">INTEGER</text>
<polygon fill="none" stroke="#29235c" stroke-width="2" points="874.26,-1854.39 874.26,-2156.39 1200.26,-2156.39 1200.26,-1854.39 874.26,-1854.39"/>
</g>
<!-- Lift&#45;&gt;SkiResort -->
<!-- Lift&#45;&gt;SkiResort -->
<g id="edge4" class="edge">
<title>Lift:e&#45;&gt;SkiResort:w</title>
<path fill="none" stroke="#29235c" stroke-width="3" d="M1200.26,-1885.39C1282,-1885.39 1304.62,-1848.54 1352.63,-1782.39 1459.21,-1635.56 1289.14,-1391.88 1457.21,-1382.66"/>
<polygon fill="#29235c" stroke="#29235c" stroke-width="3" points="1457.48,-1386.15 1467.38,-1382.39 1457.29,-1379.15 1457.48,-1386.15"/>
<text text-anchor="middle" x="1473.61" y="-1391.99" font-family="Helvetica,sans-Serif" font-size="32.00" fill="#29235c">*</text>
<text text-anchor="middle" x="1209.16" y="-1856.59" font-family="Helvetica,sans-Serif" font-size="32.00" fill="#29235c">1</text>
</g>
<!-- MaintenanceLog -->
<g id="MaintenanceLog" class="node">
<title>MaintenanceLog</title>
<ellipse fill="none" stroke="black" stroke-width="0" cx="342.95" cy="-2005.39" rx="342.89" ry="214.92"/>
<polygon fill="#1d71b8" stroke="transparent" points="102.95,-2095.39 102.95,-2155.39 583.95,-2155.39 583.95,-2095.39 102.95,-2095.39"/>
<polygon fill="none" stroke="#29235c" points="102.95,-2095.39 102.95,-2155.39 583.95,-2155.39 583.95,-2095.39 102.95,-2095.39"/>
<text text-anchor="start" x="162.93" y="-2116.59" font-family="Helvetica,sans-Serif" font-weight="bold" font-size="32.00" fill="#ffffff"> &#160;&#160;&#160;&#160;&#160;&#160;MaintenanceLog &#160;&#160;&#160;&#160;&#160;&#160;</text>
<polygon fill="#e7e2dd" stroke="transparent" points="102.95,-2035.39 102.95,-2095.39 583.95,-2095.39 583.95,-2035.39 102.95,-2035.39"/>
<polygon fill="none" stroke="#29235c" points="102.95,-2035.39 102.95,-2095.39 583.95,-2095.39 583.95,-2035.39 102.95,-2035.39"/>
<text text-anchor="start" x="113.95" y="-2056.59" font-family="Helvetica,sans-Serif" font-weight="bold" font-size="32.00" fill="#29235c">id</text>
<text text-anchor="start" x="138.84" y="-2056.59" font-family="Helvetica,sans-Serif" font-size="32.00" fill="#29235c"> &#160;&#160;&#160;</text>
<text text-anchor="start" x="430.73" y="-2056.59" font-family="Helvetica,sans-Serif" font-style="italic" font-size="32.00" fill="#29235c">INTEGER</text>
<polygon fill="#e7e2dd" stroke="transparent" points="102.95,-1975.39 102.95,-2035.39 583.95,-2035.39 583.95,-1975.39 102.95,-1975.39"/>
<polygon fill="none" stroke="#29235c" points="102.95,-1975.39 102.95,-2035.39 583.95,-2035.39 583.95,-1975.39 102.95,-1975.39"/>
<text text-anchor="start" x="113.55" y="-1995.59" font-family="Helvetica,sans-Serif" font-size="32.00" fill="#29235c">maintenance_date &#160;&#160;&#160;</text>
<text text-anchor="start" x="411.56" y="-1996.59" font-family="Helvetica,sans-Serif" font-style="italic" font-size="32.00" fill="#29235c">DATETIME</text>
<polygon fill="#e7e2dd" stroke="transparent" points="102.95,-1915.39 102.95,-1975.39 583.95,-1975.39 583.95,-1915.39 102.95,-1915.39"/>
<polygon fill="none" stroke="#29235c" points="102.95,-1915.39 102.95,-1975.39 583.95,-1975.39 583.95,-1915.39 102.95,-1915.39"/>
<text text-anchor="start" x="113.95" y="-1935.59" font-family="Helvetica,sans-Serif" font-size="32.00" fill="#29235c">lift_id &#160;&#160;&#160;</text>
<text text-anchor="start" x="430.73" y="-1936.59" font-family="Helvetica,sans-Serif" font-style="italic" font-size="32.00" fill="#29235c">INTEGER</text>
<polygon fill="#e7e2dd" stroke="transparent" points="102.95,-1855.39 102.95,-1915.39 583.95,-1915.39 583.95,-1855.39 102.95,-1855.39"/>
<polygon fill="none" stroke="#29235c" points="102.95,-1855.39 102.95,-1915.39 583.95,-1915.39 583.95,-1855.39 102.95,-1855.39"/>
<text text-anchor="start" x="113.95" y="-1875.59" font-family="Helvetica,sans-Serif" font-size="32.00" fill="#29235c">details &#160;&#160;&#160;</text>
<text text-anchor="start" x="416.52" y="-1876.59" font-family="Helvetica,sans-Serif" font-style="italic" font-size="32.00" fill="#29235c">VARCHAR</text>
<polygon fill="none" stroke="#29235c" stroke-width="2" points="101.45,-1854.39 101.45,-2156.39 584.45,-2156.39 584.45,-1854.39 101.45,-1854.39"/>
</g>
<!-- MaintenanceLog&#45;&gt;Lift -->
<!-- MaintenanceLog&#45;&gt;Lift -->
<g id="edge6" class="edge">
<title>MaintenanceLog:e&#45;&gt;Lift:w</title>
<path fill="none" stroke="#29235c" stroke-width="3" d="M584.95,-1945.39C720.62,-1945.39 734.42,-2059.37 863.9,-2065.16"/>
<polygon fill="#29235c" stroke="#29235c" stroke-width="3" points="864.19,-2068.67 874.26,-2065.39 864.34,-2061.67 864.19,-2068.67"/>
<text text-anchor="middle" x="880.49" y="-2036.59" font-family="Helvetica,sans-Serif" font-size="32.00" fill="#29235c">*</text>
<text text-anchor="middle" x="576.05" y="-1916.59" font-family="Helvetica,sans-Serif" font-size="32.00" fill="#29235c">1</text>
</g>
<!-- PerformanceReview -->
<g id="PerformanceReview" class="node">
<title>PerformanceReview</title>
<ellipse fill="none" stroke="black" stroke-width="0" cx="342.95" cy="-3349.39" rx="309.93" ry="214.92"/>
<polygon fill="#1d71b8" stroke="transparent" points="125.95,-3439.39 125.95,-3499.39 559.95,-3499.39 559.95,-3439.39 125.95,-3439.39"/>
<polygon fill="none" stroke="#29235c" points="125.95,-3439.39 125.95,-3499.39 559.95,-3499.39 559.95,-3439.39 125.95,-3439.39"/>
<text text-anchor="start" x="136.69" y="-3460.59" font-family="Helvetica,sans-Serif" font-weight="bold" font-size="32.00" fill="#ffffff"> &#160;&#160;&#160;&#160;&#160;&#160;PerformanceReview &#160;&#160;&#160;&#160;&#160;&#160;</text>
<polygon fill="#e7e2dd" stroke="transparent" points="125.95,-3379.39 125.95,-3439.39 559.95,-3439.39 559.95,-3379.39 125.95,-3379.39"/>
<polygon fill="none" stroke="#29235c" points="125.95,-3379.39 125.95,-3439.39 559.95,-3439.39 559.95,-3379.39 125.95,-3379.39"/>
<text text-anchor="start" x="136.95" y="-3400.59" font-family="Helvetica,sans-Serif" font-weight="bold" font-size="32.00" fill="#29235c">id</text>
<text text-anchor="start" x="161.84" y="-3400.59" font-family="Helvetica,sans-Serif" font-size="32.00" fill="#29235c"> &#160;&#160;&#160;</text>
<text text-anchor="start" x="406.73" y="-3400.59" font-family="Helvetica,sans-Serif" font-style="italic" font-size="32.00" fill="#29235c">INTEGER</text>
<polygon fill="#e7e2dd" stroke="transparent" points="125.95,-3319.39 125.95,-3379.39 559.95,-3379.39 559.95,-3319.39 125.95,-3319.39"/>
<polygon fill="none" stroke="#29235c" points="125.95,-3319.39 125.95,-3379.39 559.95,-3379.39 559.95,-3319.39 125.95,-3319.39"/>
<text text-anchor="start" x="136.95" y="-3339.59" font-family="Helvetica,sans-Serif" font-size="32.00" fill="#29235c">review_date &#160;&#160;&#160;</text>
<text text-anchor="start" x="387.18" y="-3340.59" font-family="Helvetica,sans-Serif" font-style="italic" font-size="32.00" fill="#29235c">DATETIME</text>
<polygon fill="#e7e2dd" stroke="transparent" points="125.95,-3259.39 125.95,-3319.39 559.95,-3319.39 559.95,-3259.39 125.95,-3259.39"/>
<polygon fill="none" stroke="#29235c" points="125.95,-3259.39 125.95,-3319.39 559.95,-3319.39 559.95,-3259.39 125.95,-3259.39"/>
<text text-anchor="start" x="136.95" y="-3279.59" font-family="Helvetica,sans-Serif" font-size="32.00" fill="#29235c">instructor_id &#160;&#160;&#160;</text>
<text text-anchor="start" x="406.73" y="-3280.59" font-family="Helvetica,sans-Serif" font-style="italic" font-size="32.00" fill="#29235c">INTEGER</text>
<polygon fill="#e7e2dd" stroke="transparent" points="125.95,-3199.39 125.95,-3259.39 559.95,-3259.39 559.95,-3199.39 125.95,-3199.39"/>
<polygon fill="none" stroke="#29235c" points="125.95,-3199.39 125.95,-3259.39 559.95,-3259.39 559.95,-3199.39 125.95,-3199.39"/>
<text text-anchor="start" x="136.95" y="-3219.59" font-family="Helvetica,sans-Serif" font-size="32.00" fill="#29235c">comments &#160;&#160;&#160;</text>
<text text-anchor="start" x="392.52" y="-3220.59" font-family="Helvetica,sans-Serif" font-style="italic" font-size="32.00" fill="#29235c">VARCHAR</text>
<polygon fill="none" stroke="#29235c" stroke-width="2" points="124.95,-3198.39 124.95,-3500.39 560.95,-3500.39 560.95,-3198.39 124.95,-3198.39"/>
</g>
<!-- SkiInstructor -->
<g id="SkiInstructor" class="node">
<title>SkiInstructor</title>
<ellipse fill="none" stroke="black" stroke-width="0" cx="1037.26" cy="-3065.39" rx="304.11" ry="214.92"/>
<polygon fill="#1d71b8" stroke="transparent" points="824.26,-3155.39 824.26,-3215.39 1250.26,-3215.39 1250.26,-3155.39 824.26,-3155.39"/>
<polygon fill="none" stroke="#29235c" points="824.26,-3155.39 824.26,-3215.39 1250.26,-3215.39 1250.26,-3155.39 824.26,-3155.39"/>
<text text-anchor="start" x="886.12" y="-3176.59" font-family="Helvetica,sans-Serif" font-weight="bold" font-size="32.00" fill="#ffffff"> &#160;&#160;&#160;&#160;&#160;&#160;SkiInstructor &#160;&#160;&#160;&#160;&#160;&#160;</text>
<polygon fill="#e7e2dd" stroke="transparent" points="824.26,-3095.39 824.26,-3155.39 1250.26,-3155.39 1250.26,-3095.39 824.26,-3095.39"/>
<polygon fill="none" stroke="#29235c" points="824.26,-3095.39 824.26,-3155.39 1250.26,-3155.39 1250.26,-3095.39 824.26,-3095.39"/>
<text text-anchor="start" x="835.26" y="-3116.59" font-family="Helvetica,sans-Serif" font-weight="bold" font-size="32.00" fill="#29235c">id</text>
<text text-anchor="start" x="860.15" y="-3116.59" font-family="Helvetica,sans-Serif" font-size="32.00" fill="#29235c"> &#160;&#160;&#160;</text>
<text text-anchor="start" x="1097.05" y="-3116.59" font-family="Helvetica,sans-Serif" font-style="italic" font-size="32.00" fill="#29235c">INTEGER</text>
<polygon fill="#e7e2dd" stroke="transparent" points="824.26,-3035.39 824.26,-3095.39 1250.26,-3095.39 1250.26,-3035.39 824.26,-3035.39"/>
<polygon fill="none" stroke="#29235c" points="824.26,-3035.39 824.26,-3095.39 1250.26,-3095.39 1250.26,-3035.39 824.26,-3035.39"/>
<text text-anchor="start" x="835.26" y="-3055.59" font-family="Helvetica,sans-Serif" font-size="32.00" fill="#29235c">name &#160;&#160;&#160;</text>
<text text-anchor="start" x="1082.84" y="-3056.59" font-family="Helvetica,sans-Serif" font-style="italic" font-size="32.00" fill="#29235c">VARCHAR</text>
<polygon fill="#e7e2dd" stroke="transparent" points="824.26,-2975.39 824.26,-3035.39 1250.26,-3035.39 1250.26,-2975.39 824.26,-2975.39"/>
<polygon fill="none" stroke="#29235c" points="824.26,-2975.39 824.26,-3035.39 1250.26,-3035.39 1250.26,-2975.39 824.26,-2975.39"/>
<text text-anchor="start" x="834.79" y="-2995.59" font-family="Helvetica,sans-Serif" font-size="32.00" fill="#29235c">expertise_level &#160;&#160;&#160;</text>
<text text-anchor="start" x="1083.05" y="-2996.59" font-family="Helvetica,sans-Serif" font-style="italic" font-size="32.00" fill="#29235c">VARCHAR</text>
<polygon fill="#e7e2dd" stroke="transparent" points="824.26,-2915.39 824.26,-2975.39 1250.26,-2975.39 1250.26,-2915.39 824.26,-2915.39"/>
<polygon fill="none" stroke="#29235c" points="824.26,-2915.39 824.26,-2975.39 1250.26,-2975.39 1250.26,-2915.39 824.26,-2915.39"/>
<text text-anchor="start" x="835.26" y="-2935.59" font-family="Helvetica,sans-Serif" font-size="32.00" fill="#29235c">hired_date &#160;&#160;&#160;</text>
<text text-anchor="start" x="1077.5" y="-2936.59" font-family="Helvetica,sans-Serif" font-style="italic" font-size="32.00" fill="#29235c">DATETIME</text>
<polygon fill="none" stroke="#29235c" stroke-width="2" points="823.26,-2914.39 823.26,-3216.39 1251.26,-3216.39 1251.26,-2914.39 823.26,-2914.39"/>
</g>
<!-- PerformanceReview&#45;&gt;SkiInstructor -->
<!-- PerformanceReview&#45;&gt;SkiInstructor -->
<g id="edge8" class="edge">
<title>PerformanceReview:e&#45;&gt;SkiInstructor:w</title>
<path fill="none" stroke="#29235c" stroke-width="3" d="M560.95,-3289.39C694.95,-3289.39 686.31,-3133.61 813.08,-3125.7"/>
<polygon fill="#29235c" stroke="#29235c" stroke-width="3" points="813.37,-3129.19 823.26,-3125.39 813.16,-3122.19 813.37,-3129.19"/>
<text text-anchor="middle" x="829.49" y="-3134.99" font-family="Helvetica,sans-Serif" font-size="32.00" fill="#29235c">*</text>
<text text-anchor="middle" x="552.05" y="-3298.99" font-family="Helvetica,sans-Serif" font-size="32.00" fill="#29235c">1</text>
</g>
<!-- ResortFacility -->
<g id="ResortFacility" class="node">
<title>ResortFacility</title>
<ellipse fill="none" stroke="black" stroke-width="0" cx="1037.26" cy="-1600.39" rx="285.84" ry="172.57"/>
<polygon fill="#1d71b8" stroke="transparent" points="837.26,-1660.39 837.26,-1720.39 1237.26,-1720.39 1237.26,-1660.39 837.26,-1660.39"/>
<polygon fill="none" stroke="#29235c" points="837.26,-1660.39 837.26,-1720.39 1237.26,-1720.39 1237.26,-1660.39 837.26,-1660.39"/>
<text text-anchor="start" x="878.14" y="-1681.59" font-family="Helvetica,sans-Serif" font-weight="bold" font-size="32.00" fill="#ffffff"> &#160;&#160;&#160;&#160;&#160;&#160;ResortFacility &#160;&#160;&#160;&#160;&#160;&#160;</text>
<polygon fill="#e7e2dd" stroke="transparent" points="837.26,-1600.39 837.26,-1660.39 1237.26,-1660.39 1237.26,-1600.39 837.26,-1600.39"/>
<polygon fill="none" stroke="#29235c" points="837.26,-1600.39 837.26,-1660.39 1237.26,-1660.39 1237.26,-1600.39 837.26,-1600.39"/>
<text text-anchor="start" x="848.26" y="-1621.59" font-family="Helvetica,sans-Serif" font-weight="bold" font-size="32.00" fill="#29235c">id</text>
<text text-anchor="start" x="873.15" y="-1621.59" font-family="Helvetica,sans-Serif" font-size="32.00" fill="#29235c"> &#160;&#160;&#160;</text>
<text text-anchor="start" x="1084.05" y="-1621.59" font-family="Helvetica,sans-Serif" font-style="italic" font-size="32.00" fill="#29235c">INTEGER</text>
<polygon fill="#e7e2dd" stroke="transparent" points="837.26,-1540.39 837.26,-1600.39 1237.26,-1600.39 1237.26,-1540.39 837.26,-1540.39"/>
<polygon fill="none" stroke="#29235c" points="837.26,-1540.39 837.26,-1600.39 1237.26,-1600.39 1237.26,-1540.39 837.26,-1540.39"/>
<text text-anchor="start" x="848.14" y="-1560.59" font-family="Helvetica,sans-Serif" font-size="32.00" fill="#29235c">facility_name &#160;&#160;&#160;</text>
<text text-anchor="start" x="1070.05" y="-1561.59" font-family="Helvetica,sans-Serif" font-style="italic" font-size="32.00" fill="#29235c">VARCHAR</text>
<polygon fill="#e7e2dd" stroke="transparent" points="837.26,-1480.39 837.26,-1540.39 1237.26,-1540.39 1237.26,-1480.39 837.26,-1480.39"/>
<polygon fill="none" stroke="#29235c" points="837.26,-1480.39 837.26,-1540.39 1237.26,-1540.39 1237.26,-1480.39 837.26,-1480.39"/>
<text text-anchor="start" x="848.26" y="-1500.59" font-family="Helvetica,sans-Serif" font-size="32.00" fill="#29235c">resort_id &#160;&#160;&#160;</text>
<text text-anchor="start" x="1084.05" y="-1501.59" font-family="Helvetica,sans-Serif" font-style="italic" font-size="32.00" fill="#29235c">INTEGER</text>
<polygon fill="none" stroke="#29235c" stroke-width="2" points="836.26,-1479.39 836.26,-1721.39 1238.26,-1721.39 1238.26,-1479.39 836.26,-1479.39"/>
</g>
<!-- ResortFacility&#45;&gt;SkiResort -->
<!-- ResortFacility&#45;&gt;SkiResort -->
<g id="edge10" class="edge">
<title>ResortFacility:e&#45;&gt;SkiResort:w</title>
<path fill="none" stroke="#29235c" stroke-width="3" d="M1238.26,-1510.39C1351.38,-1510.39 1350.88,-1390.02 1457.12,-1382.73"/>
<polygon fill="#29235c" stroke="#29235c" stroke-width="3" points="1457.51,-1386.22 1467.38,-1382.39 1457.27,-1379.22 1457.51,-1386.22"/>
<text text-anchor="middle" x="1461.16" y="-1353.59" font-family="Helvetica,sans-Serif" font-size="32.00" fill="#29235c">*</text>
<text text-anchor="middle" x="1247.16" y="-1481.59" font-family="Helvetica,sans-Serif" font-size="32.00" fill="#29235c">1</text>
</g>
<!-- SkiEvent -->
<g id="SkiEvent" class="node">
<title>SkiEvent</title>
<ellipse fill="none" stroke="black" stroke-width="0" cx="1037.26" cy="-1195.39" rx="277.79" ry="214.92"/>
<polygon fill="#1d71b8" stroke="transparent" points="843.26,-1285.39 843.26,-1345.39 1232.26,-1345.39 1232.26,-1285.39 843.26,-1285.39"/>
<polygon fill="none" stroke="#29235c" points="843.26,-1285.39 843.26,-1345.39 1232.26,-1345.39 1232.26,-1285.39 843.26,-1285.39"/>
<text text-anchor="start" x="912.39" y="-1306.59" font-family="Helvetica,sans-Serif" font-weight="bold" font-size="32.00" fill="#ffffff"> &#160;&#160;&#160;&#160;&#160;&#160;SkiEvent &#160;&#160;&#160;&#160;&#160;&#160;</text>
<polygon fill="#e7e2dd" stroke="transparent" points="843.26,-1225.39 843.26,-1285.39 1232.26,-1285.39 1232.26,-1225.39 843.26,-1225.39"/>
<polygon fill="none" stroke="#29235c" points="843.26,-1225.39 843.26,-1285.39 1232.26,-1285.39 1232.26,-1225.39 843.26,-1225.39"/>
<text text-anchor="start" x="854.26" y="-1246.59" font-family="Helvetica,sans-Serif" font-weight="bold" font-size="32.00" fill="#29235c">id</text>
<text text-anchor="start" x="879.15" y="-1246.59" font-family="Helvetica,sans-Serif" font-size="32.00" fill="#29235c"> &#160;&#160;&#160;</text>
<text text-anchor="start" x="1079.05" y="-1246.59" font-family="Helvetica,sans-Serif" font-style="italic" font-size="32.00" fill="#29235c">INTEGER</text>
<polygon fill="#e7e2dd" stroke="transparent" points="843.26,-1165.39 843.26,-1225.39 1232.26,-1225.39 1232.26,-1165.39 843.26,-1165.39"/>
<polygon fill="none" stroke="#29235c" points="843.26,-1165.39 843.26,-1225.39 1232.26,-1225.39 1232.26,-1165.39 843.26,-1165.39"/>
<text text-anchor="start" x="853.94" y="-1185.59" font-family="Helvetica,sans-Serif" font-size="32.00" fill="#29235c">event_name &#160;&#160;&#160;</text>
<text text-anchor="start" x="1065.05" y="-1186.59" font-family="Helvetica,sans-Serif" font-style="italic" font-size="32.00" fill="#29235c">VARCHAR</text>
<polygon fill="#e7e2dd" stroke="transparent" points="843.26,-1105.39 843.26,-1165.39 1232.26,-1165.39 1232.26,-1105.39 843.26,-1105.39"/>
<polygon fill="none" stroke="#29235c" points="843.26,-1105.39 843.26,-1165.39 1232.26,-1165.39 1232.26,-1105.39 843.26,-1105.39"/>
<text text-anchor="start" x="854.26" y="-1125.59" font-family="Helvetica,sans-Serif" font-size="32.00" fill="#29235c">event_date &#160;&#160;&#160;</text>
<text text-anchor="start" x="1059.5" y="-1126.59" font-family="Helvetica,sans-Serif" font-style="italic" font-size="32.00" fill="#29235c">DATETIME</text>
<polygon fill="#e7e2dd" stroke="transparent" points="843.26,-1045.39 843.26,-1105.39 1232.26,-1105.39 1232.26,-1045.39 843.26,-1045.39"/>
<polygon fill="none" stroke="#29235c" points="843.26,-1045.39 843.26,-1105.39 1232.26,-1105.39 1232.26,-1045.39 843.26,-1045.39"/>
<text text-anchor="start" x="854.26" y="-1065.59" font-family="Helvetica,sans-Serif" font-size="32.00" fill="#29235c">resort_id &#160;&#160;&#160;</text>
<text text-anchor="start" x="1079.05" y="-1066.59" font-family="Helvetica,sans-Serif" font-style="italic" font-size="32.00" fill="#29235c">INTEGER</text>
<polygon fill="none" stroke="#29235c" stroke-width="2" points="841.76,-1044.39 841.76,-1346.39 1232.76,-1346.39 1232.76,-1044.39 841.76,-1044.39"/>
</g>
<!-- SkiEvent&#45;&gt;SkiResort -->
<!-- SkiEvent&#45;&gt;SkiResort -->
<g id="edge12" class="edge">
<title>SkiEvent:e&#45;&gt;SkiResort:w</title>
<path fill="none" stroke="#29235c" stroke-width="3" d="M1233.26,-1075.39C1401.34,-1075.39 1300.15,-1369.92 1457.18,-1382"/>
<polygon fill="#29235c" stroke="#29235c" stroke-width="3" points="1457.26,-1385.51 1467.38,-1382.39 1457.52,-1378.52 1457.26,-1385.51"/>
<text text-anchor="middle" x="1461.16" y="-1391.99" font-family="Helvetica,sans-Serif" font-size="32.00" fill="#29235c">*</text>
<text text-anchor="middle" x="1242.16" y="-1046.59" font-family="Helvetica,sans-Serif" font-size="32.00" fill="#29235c">1</text>
</g>
<!-- SkiLesson -->
<g id="SkiLesson" class="node">
<title>SkiLesson</title>
<ellipse fill="none" stroke="black" stroke-width="0" cx="342.95" cy="-2901.39" rx="287.59" ry="214.92"/>
<polygon fill="#1d71b8" stroke="transparent" points="141.95,-2991.39 141.95,-3051.39 544.95,-3051.39 544.95,-2991.39 141.95,-2991.39"/>
<polygon fill="none" stroke="#29235c" points="141.95,-2991.39 141.95,-3051.39 544.95,-3051.39 544.95,-2991.39 141.95,-2991.39"/>
<text text-anchor="start" x="207.4" y="-3012.59" font-family="Helvetica,sans-Serif" font-weight="bold" font-size="32.00" fill="#ffffff"> &#160;&#160;&#160;&#160;&#160;&#160;SkiLesson &#160;&#160;&#160;&#160;&#160;&#160;</text>
<polygon fill="#e7e2dd" stroke="transparent" points="141.95,-2931.39 141.95,-2991.39 544.95,-2991.39 544.95,-2931.39 141.95,-2931.39"/>
<polygon fill="none" stroke="#29235c" points="141.95,-2931.39 141.95,-2991.39 544.95,-2991.39 544.95,-2931.39 141.95,-2931.39"/>
<text text-anchor="start" x="152.95" y="-2952.59" font-family="Helvetica,sans-Serif" font-weight="bold" font-size="32.00" fill="#29235c">id</text>
<text text-anchor="start" x="177.84" y="-2952.59" font-family="Helvetica,sans-Serif" font-size="32.00" fill="#29235c"> &#160;&#160;&#160;</text>
<text text-anchor="start" x="391.73" y="-2952.59" font-family="Helvetica,sans-Serif" font-style="italic" font-size="32.00" fill="#29235c">INTEGER</text>
<polygon fill="#e7e2dd" stroke="transparent" points="141.95,-2871.39 141.95,-2931.39 544.95,-2931.39 544.95,-2871.39 141.95,-2871.39"/>
<polygon fill="none" stroke="#29235c" points="141.95,-2871.39 141.95,-2931.39 544.95,-2931.39 544.95,-2871.39 141.95,-2871.39"/>
<text text-anchor="start" x="152.52" y="-2891.59" font-family="Helvetica,sans-Serif" font-size="32.00" fill="#29235c">lesson_name &#160;&#160;&#160;</text>
<text text-anchor="start" x="377.73" y="-2892.59" font-family="Helvetica,sans-Serif" font-style="italic" font-size="32.00" fill="#29235c">VARCHAR</text>
<polygon fill="#e7e2dd" stroke="transparent" points="141.95,-2811.39 141.95,-2871.39 544.95,-2871.39 544.95,-2811.39 141.95,-2811.39"/>
<polygon fill="none" stroke="#29235c" points="141.95,-2811.39 141.95,-2871.39 544.95,-2871.39 544.95,-2811.39 141.95,-2811.39"/>
<text text-anchor="start" x="152.95" y="-2831.59" font-family="Helvetica,sans-Serif" font-size="32.00" fill="#29235c">instructor_id &#160;&#160;&#160;</text>
<text text-anchor="start" x="391.73" y="-2832.59" font-family="Helvetica,sans-Serif" font-style="italic" font-size="32.00" fill="#29235c">INTEGER</text>
<polygon fill="#e7e2dd" stroke="transparent" points="141.95,-2751.39 141.95,-2811.39 544.95,-2811.39 544.95,-2751.39 141.95,-2751.39"/>
<polygon fill="none" stroke="#29235c" points="141.95,-2751.39 141.95,-2811.39 544.95,-2811.39 544.95,-2751.39 141.95,-2751.39"/>
<text text-anchor="start" x="152.95" y="-2771.59" font-family="Helvetica,sans-Serif" font-size="32.00" fill="#29235c">difficulty &#160;&#160;&#160;</text>
<text text-anchor="start" x="377.52" y="-2772.59" font-family="Helvetica,sans-Serif" font-style="italic" font-size="32.00" fill="#29235c">VARCHAR</text>
<polygon fill="none" stroke="#29235c" stroke-width="2" points="140.45,-2750.39 140.45,-3052.39 545.45,-3052.39 545.45,-2750.39 140.45,-2750.39"/>
</g>
<!-- SkiLesson&#45;&gt;SkiInstructor -->
<!-- SkiLesson&#45;&gt;SkiInstructor -->
<g id="edge14" class="edge">
<title>SkiLesson:e&#45;&gt;SkiInstructor:w</title>
<path fill="none" stroke="#29235c" stroke-width="3" d="M545.95,-2841.39C718.92,-2841.39 649.7,-3114.4 813.21,-3125.07"/>
<polygon fill="#29235c" stroke="#29235c" stroke-width="3" points="813.16,-3128.57 823.26,-3125.39 813.38,-3121.57 813.16,-3128.57"/>
<text text-anchor="middle" x="829.49" y="-3096.59" font-family="Helvetica,sans-Serif" font-size="32.00" fill="#29235c">*</text>
<text text-anchor="middle" x="537.05" y="-2812.59" font-family="Helvetica,sans-Serif" font-size="32.00" fill="#29235c">1</text>
</g>
<!-- SkiTrail -->
<g id="SkiTrail" class="node">
<title>SkiTrail</title>
<ellipse fill="none" stroke="black" stroke-width="0" cx="1037.26" cy="-747.39" rx="235.43" ry="214.92"/>
<polygon fill="#1d71b8" stroke="transparent" points="873.26,-837.39 873.26,-897.39 1202.26,-897.39 1202.26,-837.39 873.26,-837.39"/>
<polygon fill="none" stroke="#29235c" points="873.26,-837.39 873.26,-897.39 1202.26,-897.39 1202.26,-837.39 873.26,-837.39"/>
<text text-anchor="start" x="922.2" y="-858.59" font-family="Helvetica,sans-Serif" font-weight="bold" font-size="32.00" fill="#ffffff"> &#160;&#160;&#160;&#160;&#160;&#160;SkiTrail &#160;&#160;&#160;&#160;&#160;&#160;</text>
<polygon fill="#e7e2dd" stroke="transparent" points="873.26,-777.39 873.26,-837.39 1202.26,-837.39 1202.26,-777.39 873.26,-777.39"/>
<polygon fill="none" stroke="#29235c" points="873.26,-777.39 873.26,-837.39 1202.26,-837.39 1202.26,-777.39 873.26,-777.39"/>
<text text-anchor="start" x="884.26" y="-798.59" font-family="Helvetica,sans-Serif" font-weight="bold" font-size="32.00" fill="#29235c">id</text>
<text text-anchor="start" x="909.15" y="-798.59" font-family="Helvetica,sans-Serif" font-size="32.00" fill="#29235c"> &#160;&#160;&#160;</text>
<text text-anchor="start" x="1049.05" y="-798.59" font-family="Helvetica,sans-Serif" font-style="italic" font-size="32.00" fill="#29235c">INTEGER</text>
<polygon fill="#e7e2dd" stroke="transparent" points="873.26,-717.39 873.26,-777.39 1202.26,-777.39 1202.26,-717.39 873.26,-717.39"/>
<polygon fill="none" stroke="#29235c" points="873.26,-717.39 873.26,-777.39 1202.26,-777.39 1202.26,-717.39 873.26,-717.39"/>
<text text-anchor="start" x="884.26" y="-737.59" font-family="Helvetica,sans-Serif" font-size="32.00" fill="#29235c">name &#160;&#160;&#160;</text>
<text text-anchor="start" x="1034.84" y="-738.59" font-family="Helvetica,sans-Serif" font-style="italic" font-size="32.00" fill="#29235c">VARCHAR</text>
<polygon fill="#e7e2dd" stroke="transparent" points="873.26,-657.39 873.26,-717.39 1202.26,-717.39 1202.26,-657.39 873.26,-657.39"/>
<polygon fill="none" stroke="#29235c" points="873.26,-657.39 873.26,-717.39 1202.26,-717.39 1202.26,-657.39 873.26,-657.39"/>
<text text-anchor="start" x="884.2" y="-677.59" font-family="Helvetica,sans-Serif" font-size="32.00" fill="#29235c">difficulty &#160;&#160;&#160;</text>
<text text-anchor="start" x="1035.05" y="-678.59" font-family="Helvetica,sans-Serif" font-style="italic" font-size="32.00" fill="#29235c">VARCHAR</text>
<polygon fill="#e7e2dd" stroke="transparent" points="873.26,-597.39 873.26,-657.39 1202.26,-657.39 1202.26,-597.39 873.26,-597.39"/>
<polygon fill="none" stroke="#29235c" points="873.26,-597.39 873.26,-657.39 1202.26,-657.39 1202.26,-597.39 873.26,-597.39"/>
<text text-anchor="start" x="884.26" y="-617.59" font-family="Helvetica,sans-Serif" font-size="32.00" fill="#29235c">resort_id &#160;&#160;&#160;</text>
<text text-anchor="start" x="1049.05" y="-618.59" font-family="Helvetica,sans-Serif" font-style="italic" font-size="32.00" fill="#29235c">INTEGER</text>
<polygon fill="none" stroke="#29235c" stroke-width="2" points="871.76,-596.39 871.76,-898.39 1202.76,-898.39 1202.76,-596.39 871.76,-596.39"/>
</g>
<!-- SkiTrail&#45;&gt;SkiResort -->
<!-- SkiTrail&#45;&gt;SkiResort -->
<g id="edge16" class="edge">
<title>SkiTrail:e&#45;&gt;SkiResort:w</title>
<path fill="none" stroke="#29235c" stroke-width="3" d="M1203.26,-627.39C1369.94,-627.39 1296.9,-814.3 1352.63,-971.39 1414.87,-1146.81 1282.79,-1373.79 1457.16,-1382.15"/>
<polygon fill="#29235c" stroke="#29235c" stroke-width="3" points="1457.3,-1385.65 1467.38,-1382.39 1457.47,-1378.65 1457.3,-1385.65"/>
<text text-anchor="middle" x="1473.61" y="-1353.59" font-family="Helvetica,sans-Serif" font-size="32.00" fill="#29235c">*</text>
<text text-anchor="middle" x="1212.16" y="-598.59" font-family="Helvetica,sans-Serif" font-size="32.00" fill="#29235c">1</text>
</g>
<!-- Ticket -->
<g id="Ticket" class="node">
<title>Ticket</title>
<ellipse fill="none" stroke="black" stroke-width="0" cx="1037.26" cy="-257.39" rx="306.77" ry="257.27"/>
<polygon fill="#1d71b8" stroke="transparent" points="822.26,-377.39 822.26,-437.39 1252.26,-437.39 1252.26,-377.39 822.26,-377.39"/>
<polygon fill="none" stroke="#29235c" points="822.26,-377.39 822.26,-437.39 1252.26,-437.39 1252.26,-377.39 822.26,-377.39"/>
<text text-anchor="start" x="932.35" y="-398.59" font-family="Helvetica,sans-Serif" font-weight="bold" font-size="32.00" fill="#ffffff"> &#160;&#160;&#160;&#160;&#160;&#160;Ticket &#160;&#160;&#160;&#160;&#160;&#160;</text>
<polygon fill="#e7e2dd" stroke="transparent" points="822.26,-317.39 822.26,-377.39 1252.26,-377.39 1252.26,-317.39 822.26,-317.39"/>
<polygon fill="none" stroke="#29235c" points="822.26,-317.39 822.26,-377.39 1252.26,-377.39 1252.26,-317.39 822.26,-317.39"/>
<text text-anchor="start" x="833.26" y="-338.59" font-family="Helvetica,sans-Serif" font-weight="bold" font-size="32.00" fill="#29235c">id</text>
<text text-anchor="start" x="858.15" y="-338.59" font-family="Helvetica,sans-Serif" font-size="32.00" fill="#29235c"> &#160;&#160;&#160;</text>
<text text-anchor="start" x="1099.05" y="-338.59" font-family="Helvetica,sans-Serif" font-style="italic" font-size="32.00" fill="#29235c">INTEGER</text>
<polygon fill="#e7e2dd" stroke="transparent" points="822.26,-257.39 822.26,-317.39 1252.26,-317.39 1252.26,-257.39 822.26,-257.39"/>
<polygon fill="none" stroke="#29235c" points="822.26,-257.39 822.26,-317.39 1252.26,-317.39 1252.26,-257.39 822.26,-257.39"/>
<text text-anchor="start" x="833.26" y="-277.59" font-family="Helvetica,sans-Serif" font-size="32.00" fill="#29235c">ticket_type &#160;&#160;&#160;</text>
<text text-anchor="start" x="1084.84" y="-278.59" font-family="Helvetica,sans-Serif" font-style="italic" font-size="32.00" fill="#29235c">VARCHAR</text>
<polygon fill="#e7e2dd" stroke="transparent" points="822.26,-197.39 822.26,-257.39 1252.26,-257.39 1252.26,-197.39 822.26,-197.39"/>
<polygon fill="none" stroke="#29235c" points="822.26,-197.39 822.26,-257.39 1252.26,-257.39 1252.26,-197.39 822.26,-197.39"/>
<text text-anchor="start" x="833.26" y="-217.59" font-family="Helvetica,sans-Serif" font-size="32.00" fill="#29235c">price &#160;&#160;&#160;</text>
<text text-anchor="start" x="1138.14" y="-218.59" font-family="Helvetica,sans-Serif" font-style="italic" font-size="32.00" fill="#29235c">FLOAT</text>
<polygon fill="#e7e2dd" stroke="transparent" points="822.26,-137.39 822.26,-197.39 1252.26,-197.39 1252.26,-137.39 822.26,-137.39"/>
<polygon fill="none" stroke="#29235c" points="822.26,-137.39 822.26,-197.39 1252.26,-197.39 1252.26,-137.39 822.26,-137.39"/>
<text text-anchor="start" x="833.16" y="-157.59" font-family="Helvetica,sans-Serif" font-size="32.00" fill="#29235c">purchase_date &#160;&#160;&#160;</text>
<text text-anchor="start" x="1079.88" y="-158.59" font-family="Helvetica,sans-Serif" font-style="italic" font-size="32.00" fill="#29235c">DATETIME</text>
<polygon fill="#e7e2dd" stroke="transparent" points="822.26,-77.39 822.26,-137.39 1252.26,-137.39 1252.26,-77.39 822.26,-77.39"/>
<polygon fill="none" stroke="#29235c" points="822.26,-77.39 822.26,-137.39 1252.26,-137.39 1252.26,-77.39 822.26,-77.39"/>
<text text-anchor="start" x="833.26" y="-97.59" font-family="Helvetica,sans-Serif" font-size="32.00" fill="#29235c">resort_id &#160;&#160;&#160;</text>
<text text-anchor="start" x="1099.05" y="-98.59" font-family="Helvetica,sans-Serif" font-style="italic" font-size="32.00" fill="#29235c">INTEGER</text>
<polygon fill="none" stroke="#29235c" stroke-width="2" points="821.26,-76.39 821.26,-438.39 1253.26,-438.39 1253.26,-76.39 821.26,-76.39"/>
</g>
<!-- Ticket&#45;&gt;SkiResort -->
<!-- Ticket&#45;&gt;SkiResort -->
<g id="edge18" class="edge">
<title>Ticket:e&#45;&gt;SkiResort:w</title>
<path fill="none" stroke="#29235c" stroke-width="3" d="M1253.26,-107.39C1443.35,-107.39 1317.92,-336.49 1352.63,-523.39 1369.6,-614.73 1371.01,-1329.47 1457.58,-1379.62"/>
<polygon fill="#29235c" stroke="#29235c" stroke-width="3" points="1456.81,-1383.04 1467.38,-1382.39 1458.71,-1376.3 1456.81,-1383.04"/>
<text text-anchor="middle" x="1473.61" y="-1391.99" font-family="Helvetica,sans-Serif" font-size="32.00" fill="#29235c">*</text>
<text text-anchor="middle" x="1262.16" y="-78.59" font-family="Helvetica,sans-Serif" font-size="32.00" fill="#29235c">1</text>
</g>
</g>
</svg>
